<svg xmlns="http://www.w3.org/2000/svg" width="1140" height="420" viewBox="0 0 1140 420"><rect width="100%" height="100%" fill="#DDDDDD"/><path fill="#999999" d="M275.77 246.04h17.42v12.4h-53.6v-12.4h19.63v-56.48q0-3.35.2-6.9l-13.93 11.66q-1.21.94-2.38 1.17-1.17.24-2.21.04t-1.84-.71q-.81-.5-1.21-1.1l-5.23-7.17 29.55-25.13h13.6zm77.72 0h17.42v12.4h-53.6v-12.4h19.63v-56.48q0-3.35.2-6.9l-13.93 11.66q-1.21.94-2.38 1.17-1.17.24-2.21.04t-1.84-.71q-.81-.5-1.21-1.1l-5.23-7.17 29.55-25.13h13.6zm44.02-24.12h29.48v-31.69q0-4.49.6-9.91zm43.89 0h12.19v9.59q0 1.34-.87 2.31t-2.48.97h-8.84v23.65h-14.41v-23.65h-40.87q-1.67 0-2.95-1.04-1.27-1.04-1.6-2.58l-1.75-8.37 45.9-61.31h15.68zM531.38 210q0 12.66-2.72 22.01-2.71 9.34-7.5 15.44t-11.32 9.08q-6.54 2.98-14.11 2.98t-14.03-2.98q-6.47-2.98-11.23-9.08-4.75-6.1-7.43-15.44-2.68-9.35-2.68-22.01 0-12.73 2.68-22.04 2.68-9.32 7.43-15.41 4.76-6.1 11.23-9.08 6.46-2.98 14.03-2.98t14.11 2.98q6.53 2.98 11.32 9.08 4.79 6.09 7.5 15.41 2.72 9.31 2.72 22.04m-17.09 0q0-10.52-1.54-17.42t-4.12-10.99-5.93-5.73-6.97-1.64q-3.55 0-6.86 1.64-3.32 1.64-5.87 5.73-2.54 4.09-4.05 10.99T477.44 210t1.51 17.42 4.05 10.99q2.55 4.08 5.87 5.73 3.31 1.64 6.86 1.64 3.62 0 6.97-1.64 3.35-1.65 5.93-5.73 2.58-4.09 4.12-10.99t1.54-17.42m123.48 26.26-8.77 8.65-22.72-22.72-22.91 22.85-8.78-8.64 22.92-22.98-21.85-21.85 8.71-8.71 21.85 21.85 21.7-21.71 8.85 8.71-21.78 21.77zm58.03-14.34h29.48v-31.69q0-4.49.6-9.91zm43.88 0h12.19v9.59q0 1.34-.87 2.31t-2.48.97h-8.84v23.65h-14.4v-23.65h-40.87q-1.68 0-2.95-1.04-1.28-1.04-1.61-2.58l-1.74-8.37L724 161.49h15.68zm56.48 21.11h24.86q2.68 0 4.25 1.51 1.58 1.5 1.58 3.98v9.92h-66.47v-5.49q0-1.68.71-3.52.7-1.84 2.24-3.32l29.41-29.48q3.69-3.75 6.6-7.17 2.92-3.41 4.86-6.76t2.98-6.8q1.04-3.46 1.04-7.27 0-3.49-1-6.13-1.01-2.65-2.85-4.46t-4.42-2.71q-2.58-.91-5.8-.91-2.95 0-5.46.84t-4.45 2.34q-1.95 1.51-3.29 3.52t-2.01 4.42q-1.14 3.09-2.95 4.09-1.8 1.01-5.22.47l-8.71-1.54q1-6.97 3.88-12.23 2.89-5.26 7.21-8.78 4.32-3.51 9.91-5.29 5.6-1.77 12.03-1.77 6.7 0 12.26 1.97 5.56 1.98 9.51 5.6 3.96 3.61 6.17 8.71 2.21 5.09 2.21 11.32 0 5.36-1.57 9.92-1.58 4.55-4.23 8.71-2.64 4.15-6.19 8.04-3.55 3.88-7.44 7.9l-21.84 22.31q3.15-.94 6.26-1.44 3.12-.5 5.93-.5M907.38 210q0 12.66-2.71 22.01-2.72 9.34-7.51 15.44t-11.32 9.08-14.1 2.98-14.04-2.98q-6.46-2.98-11.22-9.08t-7.44-15.44q-2.68-9.35-2.68-22.01 0-12.73 2.68-22.04 2.68-9.32 7.44-15.41 4.76-6.1 11.22-9.08 6.47-2.98 14.04-2.98t14.1 2.98 11.32 9.08q4.79 6.09 7.51 15.41 2.71 9.31 2.71 22.04m-17.08 0q0-10.52-1.54-17.42-1.55-6.9-4.12-10.99-2.58-4.09-5.93-5.73t-6.97-1.64q-3.55 0-6.87 1.64t-5.86 5.73q-2.55 4.09-4.06 10.99-1.5 6.9-1.5 17.42t1.5 17.42q1.51 6.9 4.06 10.99 2.54 4.08 5.86 5.73 3.32 1.64 6.87 1.64 3.62 0 6.97-1.64 3.35-1.65 5.93-5.73 2.57-4.09 4.12-10.99 1.54-6.9 1.54-17.42"/></svg>