<svg width="170" height="76" viewBox="0 0 170 76" fill="none" xmlns="http://www.w3.org/2000/svg">
<rect width="170" height="76" rx="10" fill="#242426"/>
<path fillRule="evenodd" clipRule="evenodd" d="M44.7973 38.5796C44.8192 36.8832 45.7086 35.3161 47.1539 34.4276C46.2379 33.1195 44.7588 32.3198 43.1627 32.2699C41.4835 32.0936 39.8555 33.2747 38.9998 33.2747C38.1275 33.2747 36.81 32.2874 35.3913 32.3166C33.5246 32.3769 31.8266 33.4125 30.9184 35.0444C28.9844 38.3929 30.427 43.3139 32.2796 46.0205C33.2065 47.3459 34.2898 48.8263 35.7072 48.7738C37.0943 48.7163 37.6123 47.8893 39.2866 47.8893C40.9454 47.8893 41.4314 48.7738 42.8776 48.7404C44.366 48.7163 45.3038 47.4092 46.1981 46.0713C46.8641 45.1269 47.3766 44.0832 47.7166 42.9788C45.9488 42.2311 44.7994 40.499 44.7973 38.5796Z" fill="white"/>
<path fillRule="evenodd" clipRule="evenodd" d="M42.0649 30.4906C42.8765 29.5164 43.2763 28.2642 43.1794 27C41.9396 27.1302 40.7944 27.7228 39.9719 28.6596C39.1597 29.5839 38.7482 30.7932 38.8282 32.021C40.0846 32.0339 41.2776 31.4699 42.0649 30.4906Z" fill="white"/>
<path d="M66.99 33C66.924 33 66.873 32.982 66.837 32.946C66.801 32.904 66.783 32.853 66.783 32.793V26.916C66.783 26.85 66.801 26.799 66.837 26.763C66.873 26.721 66.924 26.7 66.99 26.7H69.033C69.651 26.7 70.149 26.793 70.527 26.979C70.905 27.165 71.181 27.441 71.355 27.807C71.529 28.167 71.619 28.611 71.625 29.139C71.631 29.409 71.634 29.646 71.634 29.85C71.634 30.054 71.631 30.288 71.625 30.552C71.613 31.104 71.52 31.563 71.346 31.929C71.178 32.289 70.908 32.559 70.536 32.739C70.17 32.913 69.684 33 69.078 33H66.99ZM67.665 32.235H69.033C69.447 32.235 69.777 32.178 70.023 32.064C70.269 31.95 70.446 31.767 70.554 31.515C70.668 31.263 70.728 30.93 70.734 30.516C70.746 30.336 70.752 30.18 70.752 30.048C70.752 29.91 70.752 29.775 70.752 29.643C70.752 29.505 70.746 29.349 70.734 29.175C70.722 28.593 70.584 28.164 70.32 27.888C70.056 27.606 69.612 27.465 68.988 27.465H67.665V32.235ZM74.9681 33.09C74.5121 33.09 74.1311 33.003 73.8251 32.829C73.5191 32.655 73.2851 32.415 73.1231 32.109C72.9611 31.797 72.8711 31.443 72.8531 31.047C72.8471 30.945 72.8441 30.816 72.8441 30.66C72.8441 30.498 72.8471 30.369 72.8531 30.273C72.8711 29.871 72.9611 29.517 73.1231 29.211C73.2911 28.905 73.5281 28.665 73.8341 28.491C74.1401 28.317 74.5181 28.23 74.9681 28.23C75.4181 28.23 75.7961 28.317 76.1021 28.491C76.4081 28.665 76.6421 28.905 76.8041 29.211C76.9721 29.517 77.0651 29.871 77.0831 30.273C77.0891 30.369 77.0921 30.498 77.0921 30.66C77.0921 30.816 77.0891 30.945 77.0831 31.047C77.0651 31.443 76.9751 31.797 76.8131 32.109C76.6511 32.415 76.4171 32.655 76.1111 32.829C75.8051 33.003 75.4241 33.09 74.9681 33.09ZM74.9681 32.397C75.3401 32.397 75.6371 32.28 75.8591 32.046C76.0811 31.806 76.2011 31.458 76.2191 31.002C76.2251 30.912 76.2281 30.798 76.2281 30.66C76.2281 30.522 76.2251 30.408 76.2191 30.318C76.2011 29.862 76.0811 29.517 75.8591 29.283C75.6371 29.043 75.3401 28.923 74.9681 28.923C74.5961 28.923 74.2961 29.043 74.0681 29.283C73.8461 29.517 73.7291 29.862 73.7171 30.318C73.7111 30.408 73.7081 30.522 73.7081 30.66C73.7081 30.798 73.7111 30.912 73.7171 31.002C73.7291 31.458 73.8461 31.806 74.0681 32.046C74.2961 32.28 74.5961 32.397 74.9681 32.397ZM79.518 33C79.44 33 79.38 32.982 79.338 32.946C79.296 32.904 79.26 32.847 79.23 32.775L77.952 28.599C77.94 28.569 77.934 28.539 77.934 28.509C77.934 28.455 77.952 28.41 77.988 28.374C78.03 28.338 78.075 28.32 78.123 28.32H78.519C78.585 28.32 78.636 28.338 78.672 28.374C78.708 28.41 78.732 28.443 78.744 28.473L79.743 31.866L80.814 28.509C80.826 28.467 80.85 28.425 80.886 28.383C80.928 28.341 80.988 28.32 81.066 28.32H81.372C81.45 28.32 81.51 28.341 81.552 28.383C81.594 28.425 81.618 28.467 81.624 28.509L82.695 31.866L83.694 28.473C83.7 28.443 83.721 28.41 83.757 28.374C83.793 28.338 83.844 28.32 83.91 28.32H84.306C84.36 28.32 84.405 28.338 84.441 28.374C84.477 28.41 84.495 28.455 84.495 28.509C84.495 28.539 84.489 28.569 84.477 28.599L83.199 32.775C83.181 32.847 83.148 32.904 83.1 32.946C83.058 32.982 82.995 33 82.911 33H82.56C82.482 33 82.416 32.982 82.362 32.946C82.314 32.904 82.281 32.847 82.263 32.775L81.219 29.553L80.175 32.775C80.151 32.847 80.115 32.904 80.067 32.946C80.019 32.982 79.953 33 79.869 33H79.518ZM85.8788 33C85.8188 33 85.7678 32.982 85.7258 32.946C85.6898 32.904 85.6718 32.853 85.6718 32.793V28.527C85.6718 28.467 85.6898 28.419 85.7258 28.383C85.7678 28.341 85.8188 28.32 85.8788 28.32H86.3018C86.3618 28.32 86.4098 28.341 86.4458 28.383C86.4878 28.419 86.5088 28.467 86.5088 28.527V28.923C86.6648 28.719 86.8598 28.554 87.0938 28.428C87.3338 28.296 87.6398 28.23 88.0118 28.23C88.4018 28.23 88.7318 28.317 89.0018 28.491C89.2778 28.659 89.4848 28.896 89.6228 29.202C89.7608 29.502 89.8298 29.853 89.8298 30.255V32.793C89.8298 32.853 89.8118 32.904 89.7758 32.946C89.7398 32.982 89.6918 33 89.6318 33H89.1818C89.1218 33 89.0708 32.982 89.0288 32.946C88.9928 32.904 88.9748 32.853 88.9748 32.793V30.3C88.9748 29.88 88.8728 29.553 88.6688 29.319C88.4648 29.079 88.1648 28.959 87.7688 28.959C87.3968 28.959 87.0968 29.079 86.8688 29.319C86.6468 29.553 86.5358 29.88 86.5358 30.3V32.793C86.5358 32.853 86.5148 32.904 86.4728 32.946C86.4368 32.982 86.3888 33 86.3288 33H85.8788ZM91.5258 33C91.4658 33 91.4148 32.982 91.3728 32.946C91.3368 32.904 91.3188 32.853 91.3188 32.793V26.817C91.3188 26.757 91.3368 26.709 91.3728 26.673C91.4148 26.631 91.4658 26.61 91.5258 26.61H91.9488C92.0148 26.61 92.0658 26.631 92.1018 26.673C92.1378 26.709 92.1558 26.757 92.1558 26.817V32.793C92.1558 32.853 92.1378 32.904 92.1018 32.946C92.0658 32.982 92.0148 33 91.9488 33H91.5258ZM95.5953 33.09C95.1393 33.09 94.7583 33.003 94.4523 32.829C94.1463 32.655 93.9123 32.415 93.7503 32.109C93.5883 31.797 93.4983 31.443 93.4803 31.047C93.4743 30.945 93.4713 30.816 93.4713 30.66C93.4713 30.498 93.4743 30.369 93.4803 30.273C93.4983 29.871 93.5883 29.517 93.7503 29.211C93.9183 28.905 94.1553 28.665 94.4613 28.491C94.7673 28.317 95.1453 28.23 95.5953 28.23C96.0453 28.23 96.4233 28.317 96.7293 28.491C97.0353 28.665 97.2693 28.905 97.4313 29.211C97.5993 29.517 97.6923 29.871 97.7103 30.273C97.7163 30.369 97.7193 30.498 97.7193 30.66C97.7193 30.816 97.7163 30.945 97.7103 31.047C97.6923 31.443 97.6023 31.797 97.4403 32.109C97.2783 32.415 97.0443 32.655 96.7383 32.829C96.4323 33.003 96.0513 33.09 95.5953 33.09ZM95.5953 32.397C95.9673 32.397 96.2643 32.28 96.4863 32.046C96.7083 31.806 96.8283 31.458 96.8463 31.002C96.8523 30.912 96.8553 30.798 96.8553 30.66C96.8553 30.522 96.8523 30.408 96.8463 30.318C96.8283 29.862 96.7083 29.517 96.4863 29.283C96.2643 29.043 95.9673 28.923 95.5953 28.923C95.2233 28.923 94.9233 29.043 94.6953 29.283C94.4733 29.517 94.3563 29.862 94.3443 30.318C94.3383 30.408 94.3353 30.522 94.3353 30.66C94.3353 30.798 94.3383 30.912 94.3443 31.002C94.3563 31.458 94.4733 31.806 94.6953 32.046C94.9233 32.28 95.2233 32.397 95.5953 32.397ZM100.331 33.09C100.031 33.09 99.7583 33.03 99.5123 32.91C99.2663 32.79 99.0683 32.628 98.9183 32.424C98.7683 32.22 98.6933 31.989 98.6933 31.731C98.6933 31.317 98.8613 30.987 99.1973 30.741C99.5333 30.495 99.9713 30.333 100.511 30.255L101.852 30.066V29.805C101.852 29.517 101.768 29.292 101.6 29.13C101.438 28.968 101.171 28.887 100.799 28.887C100.529 28.887 100.31 28.941 100.142 29.049C99.9803 29.157 99.8663 29.295 99.8003 29.463C99.7643 29.553 99.7013 29.598 99.6113 29.598H99.2063C99.1403 29.598 99.0893 29.58 99.0533 29.544C99.0233 29.502 99.0083 29.454 99.0083 29.4C99.0083 29.31 99.0413 29.199 99.1073 29.067C99.1793 28.935 99.2873 28.806 99.4313 28.68C99.5753 28.554 99.7583 28.449 99.9803 28.365C100.208 28.275 100.484 28.23 100.808 28.23C101.168 28.23 101.471 28.278 101.717 28.374C101.963 28.464 102.155 28.587 102.293 28.743C102.437 28.899 102.539 29.076 102.599 29.274C102.665 29.472 102.698 29.673 102.698 29.877V32.793C102.698 32.853 102.677 32.904 102.635 32.946C102.599 32.982 102.551 33 102.491 33H102.077C102.011 33 101.96 32.982 101.924 32.946C101.888 32.904 101.87 32.853 101.87 32.793V32.406C101.792 32.514 101.687 32.622 101.555 32.73C101.423 32.832 101.258 32.919 101.06 32.991C100.862 33.057 100.619 33.09 100.331 33.09ZM100.52 32.415C100.766 32.415 100.991 32.364 101.195 32.262C101.399 32.154 101.558 31.989 101.672 31.767C101.792 31.545 101.852 31.266 101.852 30.93V30.678L100.808 30.831C100.382 30.891 100.061 30.993 99.8453 31.137C99.6293 31.275 99.5213 31.452 99.5213 31.668C99.5213 31.836 99.5693 31.977 99.6653 32.091C99.7673 32.199 99.8933 32.28 100.043 32.334C100.199 32.388 100.358 32.415 100.52 32.415ZM105.882 33.09C105.552 33.09 105.267 33.033 105.027 32.919C104.787 32.799 104.589 32.64 104.433 32.442C104.283 32.238 104.169 32.007 104.091 31.749C104.019 31.491 103.977 31.218 103.965 30.93C103.959 30.834 103.956 30.744 103.956 30.66C103.956 30.576 103.959 30.486 103.965 30.39C103.977 30.108 104.019 29.838 104.091 29.58C104.169 29.322 104.283 29.091 104.433 28.887C104.589 28.683 104.787 28.524 105.027 28.41C105.267 28.29 105.552 28.23 105.882 28.23C106.236 28.23 106.53 28.293 106.764 28.419C106.998 28.545 107.19 28.701 107.34 28.887V26.817C107.34 26.757 107.358 26.709 107.394 26.673C107.436 26.631 107.487 26.61 107.547 26.61H107.979C108.039 26.61 108.087 26.631 108.123 26.673C108.165 26.709 108.186 26.757 108.186 26.817V32.793C108.186 32.853 108.165 32.904 108.123 32.946C108.087 32.982 108.039 33 107.979 33H107.574C107.508 33 107.457 32.982 107.421 32.946C107.385 32.904 107.367 32.853 107.367 32.793V32.415C107.217 32.607 107.022 32.769 106.782 32.901C106.542 33.027 106.242 33.09 105.882 33.09ZM106.071 32.361C106.371 32.361 106.611 32.292 106.791 32.154C106.971 32.016 107.106 31.842 107.196 31.632C107.286 31.416 107.334 31.197 107.34 30.975C107.346 30.879 107.349 30.765 107.349 30.633C107.349 30.495 107.346 30.378 107.34 30.282C107.334 30.072 107.283 29.865 107.187 29.661C107.097 29.457 106.959 29.289 106.773 29.157C106.593 29.025 106.359 28.959 106.071 28.959C105.765 28.959 105.522 29.028 105.342 29.166C105.162 29.298 105.033 29.475 104.955 29.697C104.877 29.913 104.832 30.147 104.82 30.399C104.814 30.573 104.814 30.747 104.82 30.921C104.832 31.173 104.877 31.41 104.955 31.632C105.033 31.848 105.162 32.025 105.342 32.163C105.522 32.295 105.765 32.361 106.071 32.361ZM114.008 33.09C113.552 33.09 113.171 33.003 112.865 32.829C112.559 32.655 112.325 32.415 112.163 32.109C112.001 31.797 111.911 31.443 111.893 31.047C111.887 30.945 111.884 30.816 111.884 30.66C111.884 30.498 111.887 30.369 111.893 30.273C111.911 29.871 112.001 29.517 112.163 29.211C112.331 28.905 112.568 28.665 112.874 28.491C113.18 28.317 113.558 28.23 114.008 28.23C114.458 28.23 114.836 28.317 115.142 28.491C115.448 28.665 115.682 28.905 115.844 29.211C116.012 29.517 116.105 29.871 116.123 30.273C116.129 30.369 116.132 30.498 116.132 30.66C116.132 30.816 116.129 30.945 116.123 31.047C116.105 31.443 116.015 31.797 115.853 32.109C115.691 32.415 115.457 32.655 115.151 32.829C114.845 33.003 114.464 33.09 114.008 33.09ZM114.008 32.397C114.38 32.397 114.677 32.28 114.899 32.046C115.121 31.806 115.241 31.458 115.259 31.002C115.265 30.912 115.268 30.798 115.268 30.66C115.268 30.522 115.265 30.408 115.259 30.318C115.241 29.862 115.121 29.517 114.899 29.283C114.677 29.043 114.38 28.923 114.008 28.923C113.636 28.923 113.336 29.043 113.108 29.283C112.886 29.517 112.769 29.862 112.757 30.318C112.751 30.408 112.748 30.522 112.748 30.66C112.748 30.798 112.751 30.912 112.757 31.002C112.769 31.458 112.886 31.806 113.108 32.046C113.336 32.28 113.636 32.397 114.008 32.397ZM117.646 33C117.586 33 117.535 32.982 117.493 32.946C117.457 32.904 117.439 32.853 117.439 32.793V28.527C117.439 28.467 117.457 28.419 117.493 28.383C117.535 28.341 117.586 28.32 117.646 28.32H118.069C118.129 28.32 118.177 28.341 118.213 28.383C118.255 28.419 118.276 28.467 118.276 28.527V28.923C118.432 28.719 118.627 28.554 118.861 28.428C119.101 28.296 119.407 28.23 119.779 28.23C120.169 28.23 120.499 28.317 120.769 28.491C121.045 28.659 121.252 28.896 121.39 29.202C121.528 29.502 121.597 29.853 121.597 30.255V32.793C121.597 32.853 121.579 32.904 121.543 32.946C121.507 32.982 121.459 33 121.399 33H120.949C120.889 33 120.838 32.982 120.796 32.946C120.76 32.904 120.742 32.853 120.742 32.793V30.3C120.742 29.88 120.64 29.553 120.436 29.319C120.232 29.079 119.932 28.959 119.536 28.959C119.164 28.959 118.864 29.079 118.636 29.319C118.414 29.553 118.303 29.88 118.303 30.3V32.793C118.303 32.853 118.282 32.904 118.24 32.946C118.204 32.982 118.156 33 118.096 33H117.646ZM127.096 33C126.76 33 126.487 32.937 126.277 32.811C126.067 32.679 125.914 32.496 125.818 32.262C125.722 32.022 125.674 31.74 125.674 31.416V29.04H124.972C124.912 29.04 124.861 29.022 124.819 28.986C124.783 28.944 124.765 28.893 124.765 28.833V28.527C124.765 28.467 124.783 28.419 124.819 28.383C124.861 28.341 124.912 28.32 124.972 28.32H125.674V26.817C125.674 26.757 125.692 26.709 125.728 26.673C125.77 26.631 125.821 26.61 125.881 26.61H126.304C126.364 26.61 126.412 26.631 126.448 26.673C126.49 26.709 126.511 26.757 126.511 26.817V28.32H127.627C127.687 28.32 127.735 28.341 127.771 28.383C127.813 28.419 127.834 28.467 127.834 28.527V28.833C127.834 28.893 127.813 28.944 127.771 28.986C127.735 29.022 127.687 29.04 127.627 29.04H126.511V31.353C126.511 31.635 126.559 31.857 126.655 32.019C126.751 32.181 126.922 32.262 127.168 32.262H127.717C127.777 32.262 127.825 32.283 127.861 32.325C127.903 32.361 127.924 32.409 127.924 32.469V32.793C127.924 32.853 127.903 32.904 127.861 32.946C127.825 32.982 127.777 33 127.717 33H127.096ZM129.181 33C129.121 33 129.07 32.982 129.028 32.946C128.992 32.904 128.974 32.853 128.974 32.793V26.817C128.974 26.757 128.992 26.709 129.028 26.673C129.07 26.631 129.121 26.61 129.181 26.61H129.631C129.697 26.61 129.748 26.631 129.784 26.673C129.82 26.709 129.838 26.757 129.838 26.817V28.914C130 28.71 130.198 28.545 130.432 28.419C130.666 28.293 130.963 28.23 131.323 28.23C131.713 28.23 132.043 28.317 132.313 28.491C132.589 28.659 132.796 28.896 132.934 29.202C133.078 29.502 133.15 29.853 133.15 30.255V32.793C133.15 32.853 133.132 32.904 133.096 32.946C133.06 32.982 133.009 33 132.943 33H132.493C132.433 33 132.382 32.982 132.34 32.946C132.304 32.904 132.286 32.853 132.286 32.793V30.3C132.286 29.88 132.184 29.553 131.98 29.319C131.776 29.079 131.476 28.959 131.08 28.959C130.708 28.959 130.408 29.079 130.18 29.319C129.952 29.553 129.838 29.88 129.838 30.3V32.793C129.838 32.853 129.82 32.904 129.784 32.946C129.748 32.982 129.697 33 129.631 33H129.181ZM136.492 33.09C135.874 33.09 135.382 32.901 135.016 32.523C134.65 32.139 134.449 31.617 134.413 30.957C134.407 30.879 134.404 30.78 134.404 30.66C134.404 30.534 134.407 30.432 134.413 30.354C134.437 29.928 134.536 29.556 134.71 29.238C134.884 28.914 135.121 28.665 135.421 28.491C135.727 28.317 136.084 28.23 136.492 28.23C136.948 28.23 137.329 28.326 137.635 28.518C137.947 28.71 138.184 28.983 138.346 29.337C138.508 29.691 138.589 30.105 138.589 30.579V30.732C138.589 30.798 138.568 30.849 138.526 30.885C138.49 30.921 138.442 30.939 138.382 30.939H135.268C135.268 30.945 135.268 30.957 135.268 30.975C135.268 30.993 135.268 31.008 135.268 31.02C135.28 31.266 135.334 31.497 135.43 31.713C135.526 31.923 135.664 32.094 135.844 32.226C136.024 32.358 136.24 32.424 136.492 32.424C136.708 32.424 136.888 32.391 137.032 32.325C137.176 32.259 137.293 32.187 137.383 32.109C137.473 32.025 137.533 31.962 137.563 31.92C137.617 31.842 137.659 31.797 137.689 31.785C137.719 31.767 137.767 31.758 137.833 31.758H138.265C138.325 31.758 138.373 31.776 138.409 31.812C138.451 31.842 138.469 31.887 138.463 31.947C138.457 32.037 138.409 32.148 138.319 32.28C138.229 32.406 138.1 32.532 137.932 32.658C137.764 32.784 137.56 32.889 137.32 32.973C137.08 33.051 136.804 33.09 136.492 33.09ZM135.268 30.318H137.734V30.291C137.734 30.021 137.683 29.781 137.581 29.571C137.485 29.361 137.344 29.196 137.158 29.076C136.972 28.95 136.75 28.887 136.492 28.887C136.234 28.887 136.012 28.95 135.826 29.076C135.646 29.196 135.508 29.361 135.412 29.571C135.316 29.781 135.268 30.021 135.268 30.291V30.318Z" fill="white"/>
<path d="M82.9199 40.4766C85.2177 40.4766 86.7324 42.293 86.7324 45.0987C86.7324 47.9122 85.2266 49.7198 82.9541 49.7198C81.7795 49.7812 80.6731 49.166 80.1055 48.1358H80.0625V52.6202H78.2041V40.5713H80.0029V42.0772H80.0371C80.6299 41.0534 81.7375 40.4385 82.9199 40.4766ZM92.8847 40.4766C95.1826 40.4766 96.6973 42.293 96.6973 45.0987C96.6973 47.9122 95.1914 49.7198 92.9189 49.7198C91.7443 49.7812 90.6379 49.166 90.0703 48.1358H90.0273V52.6202H88.1689V40.5713H89.9677V42.0772H90.0019C90.5947 41.0534 91.7023 40.4385 92.8847 40.4766ZM106.227 37C108.851 37 110.649 38.4717 110.71 40.6143H108.834C108.722 39.375 107.697 38.627 106.2 38.627C104.703 38.627 103.679 39.3838 103.679 40.4854C103.679 41.3633 104.333 41.8799 105.934 42.2754L107.302 42.6113C109.85 43.2138 110.908 44.2373 110.908 46.0537C110.908 48.3769 109.058 49.832 106.114 49.832C103.36 49.832 101.501 48.4111 101.381 46.165L103.283 46.1651C103.421 47.3965 104.617 48.2051 106.252 48.2051C107.818 48.2051 108.945 47.3965 108.945 46.2861C108.945 45.3223 108.266 44.7451 106.656 44.3496L105.047 43.9619C102.767 43.4111 101.708 42.3447 101.708 40.6143C101.708 38.4717 103.575 37 106.227 37ZM121.932 40.46C124.557 40.46 126.227 42.25 126.227 45.0987C126.227 47.9551 124.565 49.7374 121.932 49.7374C119.299 49.7374 117.638 47.9551 117.638 45.0987C117.638 42.2501 119.315 40.46 121.932 40.46ZM136.98 40.46C139.485 40.46 141.061 42.1807 141.061 44.9258V45.5625H134.666V45.6749C134.606 46.3489 134.839 47.0161 135.305 47.5067C135.771 47.9974 136.425 48.2642 137.102 48.2393C138.003 48.3238 138.854 47.8059 139.192 46.9659L140.957 46.9659C140.707 48.6094 139.106 49.7374 137.059 49.7374C134.425 49.7374 132.79 47.9727 132.79 45.1416C132.79 42.3018 134.434 40.46 136.98 40.46ZM114.919 38.4288V40.5713H116.641V42.043H114.919V47.0342C114.919 47.8096 115.264 48.1709 116.021 48.1709C116.225 48.1674 116.429 48.153 116.632 48.1279V49.5908C116.292 49.6544 115.946 49.6832 115.6 49.6768C113.767 49.6768 113.052 48.9883 113.052 47.2324V42.043H111.735V40.5713H113.052V38.4288H114.919ZM72.5664 37.2071L77.0498 49.6251H75.0107L73.875 46.2686H69.1416L68.0049 49.6251H66L70.4834 37.2071H72.5664ZM131.752 40.4766C131.966 40.4759 132.18 40.4991 132.389 40.5459V42.2842C132.118 42.2016 131.836 42.1637 131.554 42.1719C131.007 42.1498 130.479 42.3675 130.106 42.768C129.734 43.1684 129.555 43.7116 129.617 44.2549V49.625H127.759V40.5713H129.531V42.1123H129.574C129.821 41.1203 130.73 40.4376 131.752 40.4766ZM121.932 41.9913C120.426 41.9913 119.531 43.1534 119.531 45.0987C119.531 47.0606 120.426 48.2051 121.932 48.2051C123.438 48.2051 124.333 47.0606 124.333 45.0987C124.333 43.1446 123.438 41.9913 121.932 41.9913ZM82.4297 42.0606C81.0098 42.0606 80.0547 43.2911 80.0547 45.0987C80.0547 46.9229 81.0098 48.1446 82.4297 48.1446C83.875 48.1446 84.8223 46.9483 84.8223 45.0987C84.8223 43.2657 83.875 42.0606 82.4297 42.0606ZM92.3945 42.0606C90.9746 42.0606 90.0195 43.2911 90.0195 45.0987C90.0195 46.9229 90.9746 48.1446 92.3945 48.1446C93.8398 48.1446 94.7871 46.9483 94.7871 45.0987C94.7871 43.2657 93.8398 42.0606 92.3945 42.0606ZM71.5342 39.2725H71.4825L69.6318 44.7198H73.3838L71.5342 39.2725ZM136.98 41.9659C136.369 41.9622 135.782 42.2029 135.349 42.6344C134.916 43.0659 134.673 43.6525 134.675 44.2637H139.201C139.235 43.6581 139.014 43.0658 138.593 42.6296C138.171 42.1934 137.587 41.9528 136.98 41.9659Z" fill="white"/>
</svg>
