<svg width="40" height="40" viewBox="0 0 40 40" fill="none" xmlns="http://www.w3.org/2000/svg">
<path fillRule="evenodd" clip-rule="evenodd" d="M28.6646 15.0567C29.8878 20.0252 26.7799 25.0264 21.7199 26.2286C16.6615 27.4299 11.5674 24.3783 10.3443 19.4086C9.12119 14.4405 12.229 9.43924 17.289 8.23674L17.3059 8.23424C22.3403 7.02581 27.4196 10.053 28.6499 14.9971L28.6646 15.0567Z" fill="#1976D2"/>
<path fillRule="evenodd" clip-rule="evenodd" d="M18.168 20.938C18.1655 19.5805 17.0411 18.4818 15.6583 18.4843H15.2786C15.6008 17.1721 14.778 15.8527 13.4411 15.5364C13.2436 15.4897 13.0412 15.4671 12.8383 15.4693H10.2358C9.67327 18.3136 10.513 21.2518 12.5039 23.3905H15.6583C17.0401 23.3939 18.1645 22.2968 18.1676 20.938H18.168ZM21.2758 10.7671C21.2758 10.9111 21.2942 11.0539 21.332 11.193H20.2492C18.8123 11.193 17.648 12.3358 17.648 13.748C17.648 15.158 18.8123 16.3018 20.2492 16.3018H28.8626C28.5817 13.2499 26.7483 10.5449 23.9895 9.11426H22.963C22.0326 9.11301 21.277 9.85238 21.2758 10.7671ZM28.8636 18.1999H23.7245C22.5527 18.1964 21.6005 19.1264 21.5958 20.2777C21.5956 20.6237 21.6838 20.9641 21.852 21.2664C20.7364 21.6093 20.1148 22.7752 20.463 23.8702C20.7398 24.7405 21.5639 25.3327 22.493 25.3289H23.9261C26.6698 23.8996 28.5195 21.2311 28.8636 18.1999Z" fill="white"/>
<mask id="mask0_403_15655" style="mask-type:luminance" maskUnits="userSpaceOnUse" x="5" y="3" width="9" height="9">
<path d="M5 3.33325H13.0872V11.1458H5V3.33325Z" fill="white"/>
</mask>
<g mask="url(#mask0_403_15655)">
<path fillRule="evenodd" clip-rule="evenodd" d="M8.9525 11.0763C8.87662 11.0771 8.80349 11.0479 8.74905 10.9951C8.69461 10.9422 8.66327 10.87 8.66188 10.7941V10.7929C8.65844 9.00848 7.18375 7.56411 5.36594 7.56661C5.32851 7.56706 5.29137 7.56012 5.25663 7.54619C5.2219 7.53226 5.19025 7.51161 5.16351 7.48542C5.13677 7.45924 5.11547 7.42803 5.10081 7.39359C5.08616 7.35915 5.07845 7.32216 5.07812 7.28473C5.07813 7.12848 5.2075 7.0013 5.36594 7.0013C7.18125 7.00255 8.65469 5.56223 8.66188 3.7813C8.66608 3.70532 8.70013 3.63409 8.75661 3.58311C8.81309 3.53213 8.88743 3.50553 8.96344 3.50911H8.96469C9.11469 3.51536 9.23438 3.63348 9.24188 3.78098C9.24656 5.56473 10.7213 7.00755 12.5378 7.0063C12.6975 7.0063 12.8259 7.13317 12.8259 7.28942C12.8259 7.44567 12.6978 7.57286 12.5378 7.57286C10.7225 7.57036 9.24656 9.01192 9.24188 10.7954C9.24015 10.8708 9.20885 10.9425 9.15471 10.9951C9.10058 11.0476 9.02795 11.0768 8.9525 11.0763Z" fill="#FF9500"/>
</g>
<path fillRule="evenodd" clip-rule="evenodd" d="M29.2837 29.2613C29.2387 29.2614 29.1954 29.2439 29.1632 29.2125C29.131 29.181 29.1125 29.1382 29.1115 29.0932C29.1077 28.0263 28.224 27.1645 27.1387 27.1657C27.1165 27.1661 27.0944 27.1622 27.0738 27.1541C27.0531 27.1459 27.0343 27.1338 27.0183 27.1184C27.0023 27.103 26.9896 27.0846 26.9807 27.0642C26.9719 27.0439 26.9672 27.022 26.9668 26.9998V26.9985C26.967 26.9763 26.9716 26.9544 26.9803 26.934C26.989 26.9136 27.0016 26.8951 27.0174 26.8796C27.0333 26.864 27.052 26.8518 27.0726 26.8435C27.0932 26.8352 27.1152 26.8311 27.1374 26.8313H27.1387C28.224 26.8313 29.1052 25.9695 29.1102 24.9026C29.1102 24.8085 29.1871 24.7329 29.2821 24.7329H29.2834C29.3774 24.7329 29.4555 24.8085 29.4555 24.9026C29.4593 25.9695 30.3418 26.8313 31.4271 26.8313C31.5209 26.8301 31.5968 26.9045 31.599 26.997V26.9985C31.5983 27.0431 31.5802 27.0855 31.5485 27.1168C31.5168 27.1481 31.4741 27.1656 31.4296 27.1657H31.4271C30.3418 27.1657 29.4593 28.0276 29.4555 29.0945C29.4548 29.1394 29.4363 29.1822 29.4041 29.2135C29.3719 29.2449 29.3286 29.2618 29.2837 29.2613Z" fill="#1976D2"/>
<mask id="mask1_403_15655" style="mask-type:luminance" maskUnits="userSpaceOnUse" x="5" y="7" width="29" height="21">
<path d="M5.27344 7.39551H33.6009V27.083H5.27344V7.39551Z" fill="white"/>
</mask>
<g mask="url(#mask1_403_15655)">
<path fillRule="evenodd" clip-rule="evenodd" d="M33.2234 8.90836C32.3234 7.46149 30.0628 7.12711 26.69 7.93774C25.6399 8.20008 24.6063 8.52418 23.5944 8.90836C24.2438 9.22029 24.856 9.60438 25.4194 10.0534C25.9919 9.86899 26.5556 9.70055 27.0928 9.57211C27.9917 9.33912 28.9145 9.21098 29.8428 9.19024C30.9478 9.19024 31.5569 9.45899 31.7609 9.78492C32.0941 10.3205 31.7875 11.7355 29.8259 13.9609C29.4769 14.3562 29.085 14.7577 28.6725 15.1609C26.5164 17.2054 24.135 18.9982 21.5741 20.5049C19.0272 22.0704 16.3103 23.3408 13.4759 24.2915C10.0628 25.3831 7.73219 25.3609 7.20876 24.5237C6.68626 23.6849 7.73126 21.6352 10.28 19.1474C10.1236 18.4404 10.0531 17.717 10.07 16.993C6.01407 20.594 4.70157 23.713 5.74876 25.3987C6.29813 26.2799 7.49813 26.7768 9.24969 26.7768C11.3295 26.6905 13.379 26.2467 15.3081 25.4646C17.7971 24.5112 20.1932 23.3313 22.4663 21.9396C24.7521 20.5812 26.9074 19.0143 28.9047 17.259C29.6867 16.5703 30.4269 15.8357 31.1216 15.059C33.3956 12.4799 34.1231 10.3524 33.2234 8.90836Z" fill="#071E68"/>
</g>
<path d="M10.7426 33C10.7182 33 10.6993 32.9933 10.686 32.98C10.6726 32.9644 10.666 32.9456 10.666 32.9233V30.7467C10.666 30.7222 10.6726 30.7033 10.686 30.69C10.6993 30.6744 10.7182 30.6667 10.7426 30.6667H12.386C12.4104 30.6667 12.4293 30.6744 12.4426 30.69C12.4582 30.7033 12.466 30.7222 12.466 30.7467V32.9233C12.466 32.9456 12.4582 32.9644 12.4426 32.98C12.4293 32.9933 12.4104 33 12.386 33H12.216C12.1938 33 12.1749 32.9933 12.1593 32.98C12.146 32.9644 12.1393 32.9456 12.1393 32.9233V30.9667H10.9926V32.9233C10.9926 32.9456 10.9849 32.9644 10.9693 32.98C10.956 32.9933 10.9371 33 10.9126 33H10.7426ZM13.7089 33.0333C13.5401 33.0333 13.3989 33.0011 13.2856 32.9367C13.1723 32.8722 13.0856 32.7833 13.0256 32.67C12.9656 32.5544 12.9323 32.4233 12.9256 32.2767C12.9234 32.2389 12.9223 32.1911 12.9223 32.1333C12.9223 32.0733 12.9234 32.0256 12.9256 31.99C12.9323 31.8411 12.9656 31.71 13.0256 31.5967C13.0878 31.4833 13.1756 31.3944 13.2889 31.33C13.4023 31.2656 13.5423 31.2333 13.7089 31.2333C13.8756 31.2333 14.0156 31.2656 14.1289 31.33C14.2423 31.3944 14.3289 31.4833 14.3889 31.5967C14.4512 31.71 14.4856 31.8411 14.4923 31.99C14.4945 32.0256 14.4956 32.0733 14.4956 32.1333C14.4956 32.1911 14.4945 32.2389 14.4923 32.2767C14.4856 32.4233 14.4523 32.5544 14.3923 32.67C14.3323 32.7833 14.2456 32.8722 14.1323 32.9367C14.0189 33.0011 13.8778 33.0333 13.7089 33.0333ZM13.7089 32.7767C13.8467 32.7767 13.9567 32.7333 14.0389 32.6467C14.1212 32.5578 14.1656 32.4289 14.1723 32.26C14.1745 32.2267 14.1756 32.1844 14.1756 32.1333C14.1756 32.0822 14.1745 32.04 14.1723 32.0067C14.1656 31.8378 14.1212 31.71 14.0389 31.6233C13.9567 31.5344 13.8467 31.49 13.7089 31.49C13.5712 31.49 13.4601 31.5344 13.3756 31.6233C13.2934 31.71 13.2501 31.8378 13.2456 32.0067C13.2434 32.04 13.2423 32.0822 13.2423 32.1333C13.2423 32.1844 13.2434 32.2267 13.2456 32.26C13.2501 32.4289 13.2934 32.5578 13.3756 32.6467C13.4601 32.7333 13.5712 32.7767 13.7089 32.7767ZM15.613 33.0333C15.4552 33.0333 15.3186 33.0033 15.203 32.9433C15.0897 32.8811 15.0019 32.7933 14.9397 32.68C14.8775 32.5644 14.8441 32.4267 14.8397 32.2667C14.8375 32.2333 14.8363 32.1889 14.8363 32.1333C14.8363 32.0778 14.8375 32.0333 14.8397 32C14.8441 31.84 14.8775 31.7033 14.9397 31.59C15.0019 31.4744 15.0897 31.3867 15.203 31.3267C15.3186 31.2644 15.4552 31.2333 15.613 31.2333C15.7419 31.2333 15.8519 31.2511 15.943 31.2867C16.0363 31.3222 16.113 31.3678 16.173 31.4233C16.233 31.4789 16.2775 31.5389 16.3063 31.6033C16.3375 31.6678 16.3541 31.7289 16.3563 31.7867C16.3586 31.8089 16.3519 31.8267 16.3363 31.84C16.3208 31.8533 16.3019 31.86 16.2797 31.86H16.1197C16.0975 31.86 16.0808 31.8556 16.0697 31.8467C16.0586 31.8356 16.0475 31.8178 16.0363 31.7933C15.9963 31.6844 15.9419 31.6078 15.873 31.5633C15.8041 31.5189 15.7186 31.4967 15.6163 31.4967C15.483 31.4967 15.3741 31.5378 15.2897 31.62C15.2075 31.7022 15.163 31.8344 15.1563 32.0167C15.1541 32.0967 15.1541 32.1744 15.1563 32.25C15.163 32.4344 15.2075 32.5678 15.2897 32.65C15.3741 32.73 15.483 32.77 15.6163 32.77C15.7186 32.77 15.8041 32.7478 15.873 32.7033C15.9419 32.6589 15.9963 32.5822 16.0363 32.4733C16.0475 32.4489 16.0586 32.4322 16.0697 32.4233C16.0808 32.4122 16.0975 32.4067 16.1197 32.4067H16.2797C16.3019 32.4067 16.3208 32.4133 16.3363 32.4267C16.3519 32.44 16.3586 32.4578 16.3563 32.48C16.3541 32.5267 16.3441 32.5744 16.3263 32.6233C16.3086 32.6722 16.2797 32.7222 16.2397 32.7733C16.2019 32.8222 16.1541 32.8667 16.0963 32.9067C16.0386 32.9444 15.9686 32.9756 15.8863 33C15.8063 33.0222 15.7152 33.0333 15.613 33.0333ZM16.8255 33C16.8033 33 16.7855 32.9933 16.7722 32.98C16.7589 32.9667 16.7522 32.9489 16.7522 32.9267V31.33C16.7522 31.3122 16.7589 31.2978 16.7722 31.2867C16.7878 31.2733 16.8033 31.2667 16.8189 31.2667H16.9889C17.0244 31.2667 17.0522 31.2844 17.0722 31.32L17.6389 32.38L18.2089 31.32C18.2289 31.2844 18.2566 31.2667 18.2922 31.2667H18.4589C18.4766 31.2667 18.4922 31.2733 18.5055 31.2867C18.5189 31.2978 18.5255 31.3122 18.5255 31.33V32.9267C18.5255 32.9489 18.5189 32.9667 18.5055 32.98C18.4922 32.9933 18.4755 33 18.4555 33H18.2922C18.27 33 18.2522 32.9933 18.2389 32.98C18.2255 32.9667 18.2189 32.9489 18.2189 32.9267V31.5967L18.3355 31.61L17.7922 32.6367C17.7811 32.6589 17.7678 32.6789 17.7522 32.6967C17.7366 32.7144 17.7133 32.7233 17.6822 32.7233H17.5955C17.5666 32.7233 17.5444 32.7144 17.5289 32.6967C17.5133 32.6789 17.4989 32.6589 17.4855 32.6367L16.9589 31.66L17.0622 31.65V32.9267C17.0622 32.9489 17.0555 32.9667 17.0422 32.98C17.0289 32.9933 17.0111 33 16.9889 33H16.8255ZM19.7343 33.0333C19.5654 33.0333 19.4243 33.0011 19.311 32.9367C19.1977 32.8722 19.111 32.7833 19.051 32.67C18.991 32.5544 18.9577 32.4233 18.951 32.2767C18.9488 32.2389 18.9477 32.1911 18.9477 32.1333C18.9477 32.0733 18.9488 32.0256 18.951 31.99C18.9577 31.8411 18.991 31.71 19.051 31.5967C19.1132 31.4833 19.201 31.3944 19.3143 31.33C19.4277 31.2656 19.5677 31.2333 19.7343 31.2333C19.901 31.2333 20.041 31.2656 20.1543 31.33C20.2677 31.3944 20.3543 31.4833 20.4143 31.5967C20.4766 31.71 20.511 31.8411 20.5177 31.99C20.5199 32.0256 20.521 32.0733 20.521 32.1333C20.521 32.1911 20.5199 32.2389 20.5177 32.2767C20.511 32.4233 20.4777 32.5544 20.4177 32.67C20.3577 32.7833 20.271 32.8722 20.1577 32.9367C20.0443 33.0011 19.9032 33.0333 19.7343 33.0333ZM19.7343 32.7767C19.8721 32.7767 19.9821 32.7333 20.0643 32.6467C20.1466 32.5578 20.191 32.4289 20.1977 32.26C20.1999 32.2267 20.201 32.1844 20.201 32.1333C20.201 32.0822 20.1999 32.04 20.1977 32.0067C20.191 31.8378 20.1466 31.71 20.0643 31.6233C19.9821 31.5344 19.8721 31.49 19.7343 31.49C19.5966 31.49 19.4854 31.5344 19.401 31.6233C19.3188 31.71 19.2754 31.8378 19.271 32.0067C19.2688 32.04 19.2677 32.0822 19.2677 32.1333C19.2677 32.1844 19.2688 32.2267 19.271 32.26C19.2754 32.4289 19.3188 32.5578 19.401 32.6467C19.4854 32.7333 19.5966 32.7767 19.7343 32.7767ZM21.4684 33C21.4462 33 21.4273 32.9933 21.4117 32.98C21.3984 32.9644 21.3917 32.9456 21.3917 32.9233V31.5333H20.8117C20.7895 31.5333 20.7706 31.5267 20.7551 31.5133C20.7417 31.4978 20.7351 31.4789 20.7351 31.4567V31.3433C20.7351 31.3211 20.7417 31.3033 20.7551 31.29C20.7706 31.2744 20.7895 31.2667 20.8117 31.2667H22.2784C22.3006 31.2667 22.3184 31.2744 22.3317 31.29C22.3473 31.3033 22.3551 31.3211 22.3551 31.3433V31.4567C22.3551 31.4789 22.3473 31.4978 22.3317 31.5133C22.3184 31.5267 22.3006 31.5333 22.2784 31.5333H21.6984V32.9233C21.6984 32.9456 21.6917 32.9644 21.6784 32.98C21.6651 32.9933 21.6462 33 21.6217 33H21.4684ZM22.7241 33.6333C22.7019 33.6333 22.683 33.6256 22.6675 33.61C22.6541 33.5967 22.6475 33.5789 22.6475 33.5567V31.3433C22.6475 31.3211 22.6541 31.3033 22.6675 31.29C22.683 31.2744 22.7019 31.2667 22.7241 31.2667H22.8775C22.8997 31.2667 22.9175 31.2744 22.9308 31.29C22.9463 31.3033 22.9541 31.3211 22.9541 31.3433V31.49C23.0075 31.4167 23.0786 31.3556 23.1675 31.3067C23.2563 31.2578 23.3675 31.2333 23.5008 31.2333C23.6252 31.2333 23.7308 31.2544 23.8175 31.2967C23.9063 31.3389 23.9786 31.3967 24.0341 31.47C24.0919 31.5433 24.1352 31.6267 24.1641 31.72C24.193 31.8133 24.2086 31.9133 24.2108 32.02C24.213 32.0556 24.2141 32.0933 24.2141 32.1333C24.2141 32.1733 24.213 32.2111 24.2108 32.2467C24.2086 32.3511 24.193 32.4511 24.1641 32.5467C24.1352 32.64 24.0919 32.7233 24.0341 32.7967C23.9786 32.8678 23.9063 32.9256 23.8175 32.97C23.7308 33.0122 23.6252 33.0333 23.5008 33.0333C23.3719 33.0333 23.263 33.01 23.1741 32.9633C23.0875 32.9144 23.0163 32.8544 22.9608 32.7833V33.5567C22.9608 33.5789 22.9541 33.5967 22.9408 33.61C22.9275 33.6256 22.9086 33.6333 22.8841 33.6333H22.7241ZM23.4308 32.7633C23.5463 32.7633 23.6363 32.7389 23.7008 32.69C23.7675 32.6389 23.8152 32.5733 23.8441 32.4933C23.873 32.4111 23.8897 32.3233 23.8941 32.23C23.8963 32.1656 23.8963 32.1011 23.8941 32.0367C23.8897 31.9433 23.873 31.8567 23.8441 31.7767C23.8152 31.6944 23.7675 31.6289 23.7008 31.58C23.6363 31.5289 23.5463 31.5033 23.4308 31.5033C23.3219 31.5033 23.233 31.5289 23.1641 31.58C23.0975 31.6311 23.0475 31.6967 23.0141 31.7767C22.983 31.8544 22.9652 31.9344 22.9608 32.0167C22.9586 32.0522 22.9575 32.0944 22.9575 32.1433C22.9575 32.1922 22.9586 32.2356 22.9608 32.2733C22.963 32.3511 22.9808 32.4278 23.0141 32.5033C23.0497 32.5789 23.1019 32.6411 23.1708 32.69C23.2397 32.7389 23.3263 32.7633 23.4308 32.7633ZM25.3198 33.0333C25.0909 33.0333 24.9087 32.9633 24.7731 32.8233C24.6376 32.6811 24.5631 32.4878 24.5498 32.2433C24.5476 32.2144 24.5465 32.1778 24.5465 32.1333C24.5465 32.0867 24.5476 32.0489 24.5498 32.02C24.5587 31.8622 24.5954 31.7244 24.6598 31.6067C24.7242 31.4867 24.812 31.3944 24.9231 31.33C25.0365 31.2656 25.1687 31.2333 25.3198 31.2333C25.4887 31.2333 25.6298 31.2689 25.7431 31.34C25.8587 31.4111 25.9465 31.5122 26.0065 31.6433C26.0665 31.7744 26.0965 31.9278 26.0965 32.1033V32.16C26.0965 32.1844 26.0887 32.2033 26.0731 32.2167C26.0598 32.23 26.042 32.2367 26.0198 32.2367H24.8665C24.8665 32.2389 24.8665 32.2433 24.8665 32.25C24.8665 32.2567 24.8665 32.2622 24.8665 32.2667C24.8709 32.3578 24.8909 32.4433 24.9265 32.5233C24.962 32.6011 25.0131 32.6644 25.0798 32.7133C25.1465 32.7622 25.2265 32.7867 25.3198 32.7867C25.3998 32.7867 25.4665 32.7744 25.5198 32.75C25.5731 32.7256 25.6165 32.6989 25.6498 32.67C25.6831 32.6389 25.7054 32.6156 25.7165 32.6C25.7365 32.5711 25.752 32.5544 25.7631 32.55C25.7742 32.5433 25.792 32.54 25.8165 32.54H25.9765C25.9987 32.54 26.0165 32.5467 26.0298 32.56C26.0454 32.5711 26.052 32.5878 26.0498 32.61C26.0476 32.6433 26.0298 32.6844 25.9965 32.7333C25.9631 32.78 25.9154 32.8267 25.8531 32.8733C25.7909 32.92 25.7154 32.9589 25.6265 32.99C25.5376 33.0189 25.4354 33.0333 25.3198 33.0333ZM24.8665 32.0067H25.7798V31.9967C25.7798 31.8967 25.7609 31.8078 25.7231 31.73C25.6876 31.6522 25.6354 31.5911 25.5665 31.5467C25.4976 31.5 25.4154 31.4767 25.3198 31.4767C25.2242 31.4767 25.142 31.5 25.0731 31.5467C25.0065 31.5911 24.9554 31.6522 24.9198 31.73C24.8842 31.8078 24.8665 31.8967 24.8665 31.9967V32.0067ZM27.025 33C27.0028 33 26.9839 32.9933 26.9684 32.98C26.955 32.9644 26.9484 32.9456 26.9484 32.9233V31.5333H26.3684C26.3461 31.5333 26.3273 31.5267 26.3117 31.5133C26.2984 31.4978 26.2917 31.4789 26.2917 31.4567V31.3433C26.2917 31.3211 26.2984 31.3033 26.3117 31.29C26.3273 31.2744 26.3461 31.2667 26.3684 31.2667H27.835C27.8573 31.2667 27.875 31.2744 27.8884 31.29C27.9039 31.3033 27.9117 31.3211 27.9117 31.3433V31.4567C27.9117 31.4789 27.9039 31.4978 27.8884 31.5133C27.875 31.5267 27.8573 31.5333 27.835 31.5333H27.255V32.9233C27.255 32.9456 27.2484 32.9644 27.235 32.98C27.2217 32.9933 27.2028 33 27.1784 33H27.025ZM28.2774 33C28.2552 33 28.2363 32.9933 28.2208 32.98C28.2074 32.9644 28.2008 32.9456 28.2008 32.9233V31.3433C28.2008 31.3211 28.2074 31.3033 28.2208 31.29C28.2363 31.2744 28.2552 31.2667 28.2774 31.2667H28.4374C28.4597 31.2667 28.4774 31.2744 28.4908 31.29C28.5063 31.3033 28.5141 31.3211 28.5141 31.3433V31.8333H28.8874C29.1141 31.8333 29.2797 31.8867 29.3841 31.9933C29.4885 32.1 29.5408 32.2444 29.5408 32.4267C29.5408 32.6222 29.483 32.7667 29.3674 32.86C29.2519 32.9533 29.0785 33 28.8474 33H28.2774ZM28.5108 32.75H28.8608C28.9941 32.75 29.0919 32.7267 29.1541 32.68C29.2163 32.6311 29.2474 32.5467 29.2474 32.4267C29.2474 32.3111 29.2174 32.2256 29.1574 32.17C29.0974 32.1122 28.9985 32.0833 28.8608 32.0833H28.5108V32.75ZM16.427 37.0333C16.2582 37.0333 16.117 37.0011 16.0037 36.9367C15.8904 36.8722 15.8037 36.7833 15.7437 36.67C15.6837 36.5544 15.6504 36.4233 15.6437 36.2767C15.6415 36.2389 15.6404 36.1911 15.6404 36.1333C15.6404 36.0733 15.6415 36.0256 15.6437 35.99C15.6504 35.8411 15.6837 35.71 15.7437 35.5967C15.8059 35.4833 15.8937 35.3944 16.007 35.33C16.1204 35.2656 16.2604 35.2333 16.427 35.2333C16.5937 35.2333 16.7337 35.2656 16.847 35.33C16.9604 35.3944 17.047 35.4833 17.107 35.5967C17.1693 35.71 17.2037 35.8411 17.2104 35.99C17.2126 36.0256 17.2137 36.0733 17.2137 36.1333C17.2137 36.1911 17.2126 36.2389 17.2104 36.2767C17.2037 36.4233 17.1704 36.5544 17.1104 36.67C17.0504 36.7833 16.9637 36.8722 16.8504 36.9367C16.737 37.0011 16.5959 37.0333 16.427 37.0333ZM16.427 36.7767C16.5648 36.7767 16.6748 36.7333 16.757 36.6467C16.8393 36.5578 16.8837 36.4289 16.8904 36.26C16.8926 36.2267 16.8937 36.1844 16.8937 36.1333C16.8937 36.0822 16.8926 36.04 16.8904 36.0067C16.8837 35.8378 16.8393 35.71 16.757 35.6233C16.6748 35.5344 16.5648 35.49 16.427 35.49C16.2893 35.49 16.1782 35.5344 16.0937 35.6233C16.0115 35.71 15.9682 35.8378 15.9637 36.0067C15.9615 36.04 15.9604 36.0822 15.9604 36.1333C15.9604 36.1844 15.9615 36.2267 15.9637 36.26C15.9682 36.4289 16.0115 36.5578 16.0937 36.6467C16.1782 36.7333 16.2893 36.7767 16.427 36.7767ZM18.1611 37C18.1389 37 18.12 36.9933 18.1044 36.98C18.0911 36.9644 18.0844 36.9456 18.0844 36.9233V35.5333H17.5044C17.4822 35.5333 17.4633 35.5267 17.4478 35.5133C17.4344 35.4978 17.4278 35.4789 17.4278 35.4567V35.3433C17.4278 35.3211 17.4344 35.3033 17.4478 35.29C17.4633 35.2744 17.4822 35.2667 17.5044 35.2667H18.9711C18.9933 35.2667 19.0111 35.2744 19.0244 35.29C19.04 35.3033 19.0478 35.3211 19.0478 35.3433V35.4567C19.0478 35.4789 19.04 35.4978 19.0244 35.5133C19.0111 35.5267 18.9933 35.5333 18.9711 35.5333H18.3911V36.9233C18.3911 36.9456 18.3844 36.9644 18.3711 36.98C18.3578 36.9933 18.3389 37 18.3144 37H18.1611ZM19.4135 37C19.3913 37 19.3724 36.9933 19.3568 36.98C19.3435 36.9644 19.3368 36.9456 19.3368 36.9233V35.3433C19.3368 35.3211 19.3435 35.3033 19.3568 35.29C19.3724 35.2744 19.3913 35.2667 19.4135 35.2667H20.1068C20.3157 35.2667 20.4724 35.3089 20.5768 35.3933C20.6835 35.4778 20.7368 35.5911 20.7368 35.7333C20.7368 35.8333 20.7179 35.9089 20.6802 35.96C20.6424 36.0111 20.5891 36.0544 20.5202 36.09C20.6046 36.1256 20.6679 36.1833 20.7102 36.2633C20.7546 36.3411 20.7768 36.4222 20.7768 36.5067C20.7768 36.6667 20.7202 36.7889 20.6068 36.8733C20.4935 36.9578 20.3357 37 20.1335 37H19.4135ZM19.6435 36.7567H20.1068C20.2135 36.7567 20.2991 36.7367 20.3635 36.6967C20.4302 36.6544 20.4635 36.5911 20.4635 36.5067C20.4635 36.4178 20.4335 36.3533 20.3735 36.3133C20.3135 36.2711 20.2246 36.25 20.1068 36.25H19.6435V36.7567ZM19.6435 36.0033H20.0868C20.1935 36.0033 20.2779 35.98 20.3402 35.9333C20.4046 35.8867 20.4368 35.8211 20.4368 35.7367C20.4368 35.65 20.4046 35.5911 20.3402 35.56C20.2779 35.5267 20.1935 35.51 20.0868 35.51H19.6435V36.0033ZM21.8953 37.0333C21.6664 37.0333 21.4842 36.9633 21.3487 36.8233C21.2131 36.6811 21.1387 36.4878 21.1253 36.2433C21.1231 36.2144 21.122 36.1778 21.122 36.1333C21.122 36.0867 21.1231 36.0489 21.1253 36.02C21.1342 35.8622 21.1709 35.7244 21.2353 35.6067C21.2998 35.4867 21.3875 35.3944 21.4987 35.33C21.612 35.2656 21.7442 35.2333 21.8953 35.2333C22.0642 35.2333 22.2053 35.2689 22.3187 35.34C22.4342 35.4111 22.522 35.5122 22.582 35.6433C22.642 35.7744 22.672 35.9278 22.672 36.1033V36.16C22.672 36.1844 22.6642 36.2033 22.6487 36.2167C22.6353 36.23 22.6175 36.2367 22.5953 36.2367H21.442C21.442 36.2389 21.442 36.2433 21.442 36.25C21.442 36.2567 21.442 36.2622 21.442 36.2667C21.4464 36.3578 21.4664 36.4433 21.502 36.5233C21.5375 36.6011 21.5887 36.6644 21.6553 36.7133C21.722 36.7622 21.802 36.7867 21.8953 36.7867C21.9753 36.7867 22.042 36.7744 22.0953 36.75C22.1487 36.7256 22.192 36.6989 22.2253 36.67C22.2587 36.6389 22.2809 36.6156 22.292 36.6C22.312 36.5711 22.3275 36.5544 22.3387 36.55C22.3498 36.5433 22.3675 36.54 22.392 36.54H22.552C22.5742 36.54 22.592 36.5467 22.6053 36.56C22.6209 36.5711 22.6275 36.5878 22.6253 36.61C22.6231 36.6433 22.6053 36.6844 22.572 36.7333C22.5387 36.78 22.4909 36.8267 22.4287 36.8733C22.3664 36.92 22.2909 36.9589 22.202 36.99C22.1131 37.0189 22.0109 37.0333 21.8953 37.0333ZM21.442 36.0067H22.3553V35.9967C22.3553 35.8967 22.3364 35.8078 22.2987 35.73C22.2631 35.6522 22.2109 35.5911 22.142 35.5467C22.0731 35.5 21.9909 35.4767 21.8953 35.4767C21.7998 35.4767 21.7175 35.5 21.6487 35.5467C21.582 35.5911 21.5309 35.6522 21.4953 35.73C21.4598 35.8078 21.442 35.8967 21.442 35.9967V36.0067ZM23.6006 37C23.5783 37 23.5594 36.9933 23.5439 36.98C23.5306 36.9644 23.5239 36.9456 23.5239 36.9233V35.5333H22.9439C22.9217 35.5333 22.9028 35.5267 22.8872 35.5133C22.8739 35.4978 22.8672 35.4789 22.8672 35.4567V35.3433C22.8672 35.3211 22.8739 35.3033 22.8872 35.29C22.9028 35.2744 22.9217 35.2667 22.9439 35.2667H24.4106C24.4328 35.2667 24.4506 35.2744 24.4639 35.29C24.4794 35.3033 24.4872 35.3211 24.4872 35.3433V35.4567C24.4872 35.4789 24.4794 35.4978 24.4639 35.5133C24.4506 35.5267 24.4328 35.5333 24.4106 35.5333H23.8306V36.9233C23.8306 36.9456 23.8239 36.9644 23.8106 36.98C23.7972 36.9933 23.7783 37 23.7539 37H23.6006Z" fill="white"/>
</svg>
