<svg width="24" height="24" viewBox="0 0 24 24" fill="none" xmlns="http://www.w3.org/2000/svg">
<rect width="24" height="24" rx="12" fill="#959595"/>
<path d="M12.0001 6C11.1535 6 10.4001 6.53333 10.1201 7.33333H6.00012V8.66667H7.30012L5.33345 13.3333C5.02012 14.6667 6.00012 15.3333 7.66678 15.3333C9.33345 15.3333 10.3735 14.6667 10.0001 13.3333L8.03345 8.66667H10.1135C10.3335 9.23333 10.7668 9.66667 11.3335 9.88667V17.3333H5.33345V18.6667H18.6668V17.3333H12.6668V9.88C13.2335 9.66667 13.6668 9.23333 13.8801 8.66667H15.9668L14.0001 13.3333C13.6868 14.6667 14.6668 15.3333 16.3335 15.3333C18.0001 15.3333 19.0401 14.6667 18.6668 13.3333L16.7001 8.66667H18.0001V7.33333H13.8868C13.6001 6.53333 12.8468 6 12.0001 6ZM12.0001 7.33333C12.1769 7.33333 12.3465 7.40357 12.4715 7.5286C12.5965 7.65362 12.6668 7.82319 12.6668 8C12.6668 8.17681 12.5965 8.34638 12.4715 8.4714C12.3465 8.59643 12.1769 8.66667 12.0001 8.66667C11.8233 8.66667 11.6537 8.59643 11.5287 8.4714C11.4037 8.34638 11.3335 8.17681 11.3335 8C11.3335 7.82319 11.4037 7.65362 11.5287 7.5286C11.6537 7.40357 11.8233 7.33333 12.0001 7.33333ZM7.66678 10.8333L8.66678 13.3333H6.66678L7.66678 10.8333ZM16.3335 10.8333L17.3335 13.3333H15.3335L16.3335 10.8333Z" fill="white"/>
</svg>
